{
  "accessors": [
    {
      "bufferView": 2,
      "componentType": 5126,
      "count": 65532,
      "max": [
        1.5742391347885132,
        4.281696319580078,
        11.240469932556152
      ],
      "min": [
        -3.008244037628174,
        -4.002299785614014,
        6.004702568054199
      ],
      "type": "VEC3"
    },
    {
      "bufferView": 2,
      "byteOffset": 786384,
      "componentType": 5126,
      "count": 65532,
      "max": [
        0.9999996423721313,
        0.9999943971633911,
        0.9997355341911316
      ],
      "min": [
        -0.9998821020126343,
        -0.9999923706054688,
        -0.9999880790710449
      ],
      "type": "VEC3"
    },
    {
      "bufferView": 1,
      "componentType": 5126,
      "count": 65532,
      "max": [
        0.9985257983207703,
        0.9995115995407104
      ],
      "min": [
        0.00048828125,
        0.0015557600418105721
      ],
      "type": "VEC2"
    },
    {
      "bufferView": 0,
      "componentType": 5125,
      "count": 247854,
      "type": "SCALAR"
    },
    {
      "bufferView": 2,
      "byteOffset": 1572768,
      "componentType": 5126,
      "count": 65532,
      "max": [
        2.3230342864990234,
        4.28176212310791,
        11.240469932556152
      ],
      "min": [
        -2.895251989364624,
        -4.002288818359375,
        0.13613605499267578
      ],
      "type": "VEC3"
    },
    {
      "bufferView": 2,
      "byteOffset": 2359152,
      "componentType": 5126,
      "count": 65532,
      "max": [
        0.9999999403953552,
        0.999997615814209,
        0.9999987483024597
      ],
      "min": [
        -0.9999998807907104,
        -0.9999985694885254,
        -0.9999994039535522
      ],
      "type": "VEC3"
    },
    {
      "bufferView": 1,
      "byteOffset": 524256,
      "componentType": 5126,
      "count": 65532,
      "max": [
        0.9984397888183594,
        0.8222655057907104
      ],
      "min": [
        0.00048828125,
        0.001464803353883326
      ],
      "type": "VEC2"
    },
    {
      "bufferView": 0,
      "byteOffset": 991416,
      "componentType": 5125,
      "count": 246279,
      "type": "SCALAR"
    },
    {
      "bufferView": 2,
      "byteOffset": 3145536,
      "componentType": 5126,
      "count": 65532,
      "max": [
        2.3480679988861084,
        4.289961814880371,
        11.240469932556152
      ],
      "min": [
        -3.014418125152588,
        -4.002133846282959,
        0.16034512221813202
      ],
      "type": "VEC3"
    },
    {
      "bufferView": 2,
      "byteOffset": 3931920,
      "componentType": 5126,
      "count": 65532,
      "max": [
        0.9999991059303284,
        0.9999861121177673,
        0.9999996423721313
      ],
      "min": [
        -0.9999999403953552,
        -0.9999985098838806,
        -0.999944269657135
      ],
      "type": "VEC3"
    },
    {
      "bufferView": 1,
      "byteOffset": 1048512,
      "componentType": 5126,
      "count": 65532,
      "max": [
        0.9984999299049377,
        0.49707022309303284
      ],
      "min": [
        0.00048828125,
        0.0011878801742568612
      ],
      "type": "VEC2"
    },
    {
      "bufferView": 0,
      "byteOffset": 1976532,
      "componentType": 5125,
      "count": 249780,
      "type": "SCALAR"
    },
    {
      "bufferView": 2,
      "byteOffset": 4718304,
      "componentType": 5126,
      "count": 65532,
      "max": [
        2.2613303661346436,
        4.289452075958252,
        11.240468978881836
      ],
      "min": [
        -2.9281764030456543,
        -4.002264499664307,
        0.25121715664863586
      ],
      "type": "VEC3"
    },
    {
      "bufferView": 2,
      "byteOffset": 5504688,
      "componentType": 5126,
      "count": 65532,
      "max": [
        0.9999998807907104,
        0.9999939203262329,
        0.9999997615814209
      ],
      "min": [
        -1.0,
        -0.9999987483024597,
        -0.999960720539093
      ],
      "type": "VEC3"
    },
    {
      "bufferView": 1,
      "byteOffset": 1572768,
      "componentType": 5126,
      "count": 65532,
      "max": [
        0.9985014796257019,
        0.8164061307907104
      ],
      "min": [
        0.00048828125,
        0.0016164971748366952
      ],
      "type": "VEC2"
    },
    {
      "bufferView": 0,
      "byteOffset": 2975652,
      "componentType": 5125,
      "count": 237807,
      "type": "SCALAR"
    },
    {
      "bufferView": 2,
      "byteOffset": 6291072,
      "componentType": 5126,
      "count": 14518,
      "max": [
        1.3910858631134033,
        0.6236734986305237,
        11.240469932556152
      ],
      "min": [
        -3.007614850997925,
        -4.002252578735352,
        6.0243425369262695
      ],
      "type": "VEC3"
    },
    {
      "bufferView": 2,
      "byteOffset": 6465288,
      "componentType": 5126,
      "count": 14518,
      "max": [
        0.9999961853027344,
        0.9990143179893494,
        0.9751953482627869
      ],
      "min": [
        -0.9956310391426086,
        -0.9999706149101257,
        -0.9999945163726807
      ],
      "type": "VEC3"
    },
    {
      "bufferView": 1,
      "byteOffset": 2097024,
      "componentType": 5126,
      "count": 14518,
      "max": [
        0.9984576106071472,
        0.8457030057907104
      ],
      "min": [
        0.00048828125,
        0.0016467167297378182
      ],
      "type": "VEC2"
    },
    {
      "bufferView": 0,
      "byteOffset": 3926880,
      "componentType": 5125,
      "count": 36441,
      "type": "SCALAR"
    }
  ],
  "asset": {
    "extras": {
      "author": "Azad Balabanian (https://sketchfab.com/azadbal)",
      "license": "CC-BY-4.0 (http://creativecommons.org/licenses/by/4.0/)",
      "source": "https://sketchfab.com/3d-models/bishops-bridge-barcelona-spain-e3cc10871d03467fbe5f8c5f19bf8cab",
      "title": "Bishop’s Bridge - Barcelona, Spain"
    },
    "generator": "Sketchfab-12.65.0",
    "version": "2.0"
  },
  "bufferViews": [
    {
      "buffer": 0,
      "byteLength": 4072644,
      "name": "floatBufferViews",
      "target": 34963
    },
    {
      "buffer": 0,
      "byteLength": 2213168,
      "byteOffset": 4072644,
      "byteStride": 8,
      "name": "floatBufferViews",
      "target": 34962
    },
    {
      "buffer": 0,
      "byteLength": 6639504,
      "byteOffset": 6285812,
      "byteStride": 12,
      "name": "floatBufferViews",
      "target": 34962
    }
  ],
  "buffers": [
    {
      "byteLength": 12925316,
      "uri": "scene.bin"
    }
  ],
  "extensionsUsed": [
    "KHR_materials_unlit"
  ],
  "images": [
    {
      "uri": "textures/Gothic_bridge_u1_v1_baseColor.jpeg"
    }
  ],
  "materials": [
    {
      "extensions": {
        "KHR_materials_unlit": {}
      },
      "name": "Gothic_bridge_u1_v1",
      "pbrMetallicRoughness": {
        "baseColorTexture": {
          "index": 0
        },
        "metallicFactor": 0.0
      }
    }
  ],
  "meshes": [
    {
      "name": "Gothic_bridge_Gothic_bridge_u1_v1_0",
      "primitives": [
        {
          "attributes": {
            "NORMAL": 1,
            "POSITION": 0,
            "TEXCOORD_0": 2
          },
          "indices": 3,
          "material": 0,
          "mode": 4
        }
      ]
    },
    {
      "name": "Gothic_bridge_Gothic_bridge_u1_v1_0",
      "primitives": [
        {
          "attributes": {
            "NORMAL": 5,
            "POSITION": 4,
            "TEXCOORD_0": 6
          },
          "indices": 7,
          "material": 0,
          "mode": 4
        }
      ]
    },
    {
      "name": "Gothic_bridge_Gothic_bridge_u1_v1_0",
      "primitives": [
        {
          "attributes": {
            "NORMAL": 9,
            "POSITION": 8,
            "TEXCOORD_0": 10
          },
          "indices": 11,
          "material": 0,
          "mode": 4
        }
      ]
    },
    {
      "name": "Gothic_bridge_Gothic_bridge_u1_v1_0",
      "primitives": [
        {
          "attributes": {
            "NORMAL": 13,
            "POSITION": 12,
            "TEXCOORD_0": 14
          },
          "indices": 15,
          "material": 0,
          "mode": 4
        }
      ]
    },
    {
      "name": "Gothic_bridge_Gothic_bridge_u1_v1_0",
      "primitives": [
        {
          "attributes": {
            "NORMAL": 17,
            "POSITION": 16,
            "TEXCOORD_0": 18
          },
          "indices": 19,
          "material": 0,
          "mode": 4
        }
      ]
    }
  ],
  "nodes": [
    {
      "children": [
        1
      ],
      "matrix": [
        1.0,
        0.0,
        0.0,
        0.0,
        0.0,
        -5.053215392444312e-16,
        1.0,
        0.0,
        0.0,
        -1.0,
        -5.053215392444312e-16,
        0.0,
        0.0,
        -11.376618385314941,
        0.2876806259155248,
        1.0
      ],
      "name": "Sketchfab_model"
    },
    {
      "children": [
        2
      ],
      "matrix": [
        1.0,
        0.0,
        0.0,
        0.0,
        0.0,
        -1.0,
        0.0,
        0.0,
        0.0,
        0.0,
        -1.0,
        0.0,
        0.0,
        0.0,
        0.0,
        1.0
      ],
      "name": "Gothic_bridge.fbx"
    },
    {
      "children": [
        3
      ],
      "name": "RootNode"
    },
    {
      "children": [
        4,
        5,
        6,
        7,
        8
      ],
      "name": "Gothic_bridge"
    },
    {
      "mesh": 0,
      "name": "Gothic_bridge_Gothic_bridge_u1_v1_0"
    },
    {
      "mesh": 1,
      "name": "Gothic_bridge_Gothic_bridge_u1_v1_0"
    },
    {
      "mesh": 2,
      "name": "Gothic_bridge_Gothic_bridge_u1_v1_0"
    },
    {
      "mesh": 3,
      "name": "Gothic_bridge_Gothic_bridge_u1_v1_0"
    },
    {
      "mesh": 4,
      "name": "Gothic_bridge_Gothic_bridge_u1_v1_0"
    }
  ],
  "samplers": [
    {
      "magFilter": 9729,
      "minFilter": 9987,
      "wrapS": 10497,
      "wrapT": 10497
    }
  ],
  "scene": 0,
  "scenes": [
    {
      "name": "Sketchfab_Scene",
      "nodes": [
        0
      ]
    }
  ],
  "textures": [
    {
      "sampler": 0,
      "source": 0
    }
  ]
}
